<?xml version="1.0" encoding="utf-8"?>
<!-- Generator: Adobe Illustrator 18.0.0, SVG Export Plug-In . SVG Version: 6.00 Build 0)  -->
<!DOCTYPE svg PUBLIC "-//W3C//DTD SVG 1.1//EN" "http://www.w3.org/Graphics/SVG/1.1/DTD/svg11.dtd">
<svg version="1.1" id="Ebene_1" xmlns="http://www.w3.org/2000/svg" xmlns:xlink="http://www.w3.org/1999/xlink" x="0px" y="0px"
	 viewBox="2.8 713.1 627.4 130.3" enable-background="new 2.8 713.1 627.4 130.3" xml:space="preserve">
<g>
	<g id="XMLID_1_">
		<g id="XMLID_12_">
			<path id="XMLID_13_" fill="#FFFFFF" d="M335.2,774.5l-3.5-1.1c-3.5-1.1-7-3.5-7-7c0-4.1,3.5-7,7.5-7c3.5,0,5.9,1.1,7.5,4.6
				l0.6,0.6l4.6-2.9l-0.6-0.6c-2.9-4.6-7-7-12.2-7c-6.4,0-14,4.6-14,12.7c0,7,5.2,9.9,10.5,12.7l2.9,1.1c4.1,1.7,8.1,4.1,8.1,8.7
				c0,4.6-4.1,8.7-9.2,8.7c-4.6,0-8.1-3.5-9.2-8.1V789l-5.9,1.7v0.6c1.7,7.5,7.5,12.2,15.1,12.2c8.7,0,15.1-6.4,15.1-15.1
				C346.8,780.3,341,776.8,335.2,774.5"/>
		</g>
		<polygon id="XMLID_11_" fill="#FFFFFF" points="388,754.2 388,760 399.6,760 399.6,802.4 405.5,802.4 405.5,760 416.5,760 
			416.5,754.2 		"/>
		<g id="XMLID_7_">
			<path id="XMLID_8_" fill="#FFFFFF" d="M467,759.4h1.1c6.4,0,11.6,0.6,11.6,8.1c0,7-5.9,8.1-11.6,8.1H467V759.4z M485.6,766.9
				c0-9.2-5.9-13.4-18-13.4h-7.5v48.2h5.9v-21h0.6l14.5,21h7.5l-15.1-21.5C481.5,779.8,485.6,774.5,485.6,766.9"/>
		</g>
		<polygon id="XMLID_6_" fill="#FFFFFF" points="608.1,753.6 608.1,801.8 630.2,801.8 630.2,796 613.9,796 613.9,753.6 		"/>
		<polygon id="XMLID_5_" fill="#FFFFFF" points="235.9,802.4 242.3,802.4 255.6,766.9 269,802.4 276,802.4 255.6,750.7 		"/>
		<polygon id="XMLID_4_" fill="#FFFFFF" points="526.8,801.8 533.1,801.8 546.5,766.4 559.8,801.8 566.8,801.8 546.5,749.6 		"/>
	</g>
	<path id="XMLID_16_" fill="#FFFFFF" d="M115.5,806.5L115.5,806.5l-0.6-56.3c1.1-0.6,1.7-1.7,1.7-2.9c0-2.4-1.7-3.5-3.5-3.5
		c0,0-1.1,0-1.1,0.6l-48.2-27.8c0-1.7-1.7-3.5-3.5-3.5s-3.5,1.1-3.5,2.9L8,744.4c-0.6-0.6-1.1-0.6-1.7-0.6c-2.4,0-3.5,1.7-3.5,3.5
		c0,1.1,0.6,2.9,1.1,2.9l0,0l0.6,56.3c-1.1,0.6-1.7,1.7-1.7,2.9c0,2.4,1.7,3.5,3.5,3.5c0.6,0,1.1,0,1.1-0.6L55.6,840
		c0,1.7,1.7,3.5,3.5,3.5s3.5-1.1,3.5-2.9l48.3-28.3c0.6,0.6,1.1,0.6,1.7,0.6c2.4,0,3.5-1.7,3.5-3.5
		C117.2,807.6,116.1,806.5,115.5,806.5z M110.8,757.7v47L94,796.6c0-0.6,0-1.1-0.6-1.1L110.8,757.7z M90.5,800.6c0,0,1.1,0,1.1-0.6
		l16.2,9.2l-40.7,23.2L90.5,800.6z M90.5,791.4l-26.7-45.3l45.9,2.9L90.5,791.4z M62.1,740.9v-20.3l41.2,23.8L63.2,742
		C63.2,741.4,62.7,740.9,62.1,740.9z M9.2,749.6l45.9-3.5L29,791.4L9.2,749.6z M27.8,800L27.8,800c0.6,0,0.6,0,1.1,0l23.2,32.6
		l-40.7-23.8L27.8,800z M16.2,744.4l41.3-23.8l0.6,19.7c0,0-0.6,0.6-1.1,1.1L16.2,744.4z M59.7,748.4l26.7,45.9H33L59.7,748.4z
		 M26,796l-17.5,9.2v-47.7L26,794.2C26,794.9,25.5,795.4,26,796z M85.9,798.9l-26.1,37.2l-26.2-37.2H85.9z"/>
</g>
</svg>
